<?xml version="1.0" standalone="no"?>
<!DOCTYPE svg PUBLIC "-//W3C//DTD SVG 1.1//EN" "http://www.w3.org/Graphics/SVG/1.1/DTD/svg11.dtd">
<svg xmlns="http://www.w3.org/2000/svg">
<metadata>Generated by Fontastic.me</metadata>
<defs>
<font id="appliedjobportalrequitement" horiz-adv-x="512">
<font-face font-family="appliedjobportalrequitement" units-per-em="512" ascent="480" descent="-32"/>
<missing-glyph horiz-adv-x="512" />

<glyph glyph-name="add-icon" unicode="&#97;" d="M256 512c141 0 256-115 256-256 0-141-115-256-256-256-141 0-256 115-256 256 0 141 115 256 256 256z m0-44c-118 0-212-94-212-212 0-118 94-212 212-212 118 0 212 94 212 212 0 118-94 212-212 212z m8-84c7 0 12-5 12-13l0-95 95 0c8 0 13-5 13-12l0-18c0-8-5-13-13-13l-95 0 0-95c0-7-5-13-12-13l-18 0c-8 0-13 6-13 13l0 95-92 0c-8 0-13 5-13 13l0 18c0 7 5 12 13 12l95 0 0 95c0 8 5 13 12 13z"/>
<glyph glyph-name="view-icon" unicode="&#98;" d="M256 333c44 0 77-33 77-77 0-44-33-77-77-77-44 0-77 33-77 77 0 44 33 77 77 77z m0 102c115 0 215-84 256-179-41-95-141-179-256-179-115 0-215 84-256 179 41 95 141 179 256 179z m-205-179c36-69 121-131 205-131 84 0 169 62 205 131-36 69-121 131-205 131-84 0-169-62-205-131z"/>
<glyph glyph-name="archive-icon" unicode="&#99;" d="M499 448l-38 49c-10 10-21 15-33 15l-344 0c-12 0-23-5-33-15l-38-49c-8-10-13-28-13-44l0-363c0-31 10-41 44-41l427 0c31 0 44 10 44 44l0 360c-3 16-8 34-16 44z m-394 13l302 0c3 0 3 0 5-3l23-10c3-3 5-5 3-10 0 0-3-3-5-3l-354 0c-2 0-5 3-5 8 0 2 3 5 3 5l23 10c2 3 2 3 5 3z m-54-397l0 307c0 8 5 13 13 13l387 0c7 0 12-5 12-13l0-307c0-8-5-13-12-13l-387 0c-8 0-13 5-13 13z m251 243l-92 0c-3 0-5-2-5-5l0-66c0-3-3-6-5-6l-59 0c-3 0-5-2-5-5 0-2 0-2 2-2l115-115c3-3 6-3 8 0l115 115c3 2 3 5 0 7 0 0-2 3-2 3l-67 0 0 72c0 0-2 2-5 2z"/>
<glyph glyph-name="attach-icon" unicode="&#100;" d="M348 379l0-251c0-51-41-92-92-92-51 0-92 41-92 92l0 292c0 33 25 59 59 59 33 0 59-26 59-59l0-243c0-13-11-23-23-23-13 0-23 10-23 23l0 204c0 11-8 18-18 18-11 0-18-7-18-18l0-204c0-34 25-59 59-59 33 0 58 25 58 59l0 243c0 51-41 92-92 92-51 0-97-41-97-92l0-292c0-72 56-128 128-128 72 0 128 56 128 128l0 251c0 10-8 18-18 18-10 0-18-10-18-18z"/>
<glyph glyph-name="back-icon" unicode="&#101;" d="M83 244l168-168c7-8 7-22 0-30l-5-5c-7-7-22-7-29 0l-212 213c-3 2-5 7-5 14 0 5 2 10 7 15l212 212c8 7 22 7 30 0l5-5c7-7 7-22 0-29l-166-166 400 0c14 0 24-10 24-24 0-15-10-25-24-25l-405 0z"/>
<glyph glyph-name="calendar-icon" unicode="&#102;" d="M166 282l-25 0c-8 0-13-6-13-13l0-26c0-7 5-13 13-13l25 0c8 0 13 6 13 13l0 26c0 7-5 13-13 13z m103 0l-26 0c-7 0-13-6-13-13l0-26c0-7 6-13 13-13l26 0c7 0 13 6 13 13l0 26c0 7-6 13-13 13z m102 0l-25 0c-8 0-13-6-13-13l0-26c0-7 5-13 13-13l25 0c8 0 13 6 13 13l0 26c0 7-5 13-13 13z m64 179l-25 0 0 38c0 8-6 13-13 13l-26 0c-7 0-13-5-13-13l0-38-204 0 0 38c0 8-6 13-13 13l-26 0c-7 0-13-5-13-13l0-38-25 0c-28 0-51-23-51-51l0-359c0-28 23-51 51-51l358 0c28 0 51 23 51 51l0 359c0 28-23 51-51 51z m-25-410l-308 0c-15 0-25 10-25 26l0 230c0 16 10 26 25 26l308 0c15 0 25-10 25-26l0-230c0-16-10-26-25-26z"/>
<glyph glyph-name="cancel-icon" unicode="&#103;" d="M256 512c141 0 256-115 256-256 0-141-115-256-256-256-141 0-256 115-256 256 0 141 115 256 256 256z m0-51c-113 0-205-92-205-205 0-113 92-205 205-205 113 0 205 92 205 205 0 113-92 205-205 205z m77-103l25-25-76-77 76-77-25-25-77 76-77-76-25 25 76 77-76 77 25 25 77-76z"/>
<glyph glyph-name="card-icon" unicode="&#104;" d="M461 461c28 0 51-23 51-51l0-308c0-28-23-51-51-51l-410 0c-28 0-51 23-51 51l0 308c0 28 23 51 51 51z m0-205l-410 0 0-120c0-13 10-23 23-26l361 0c13 0 23 10 26 23z m-26 146l-358 0c-13 0-23-10-26-23l0-46 410 0 0 43c0 16-10 26-26 26z"/>
<glyph glyph-name="edit-icon" unicode="&#105;" d="M371 512c8 0 13-5 13-13l0-25c0-8-5-13-13-13l-307 0c-8 0-13-5-13-13l0-384c0-8 5-13 13-13l384 0c8 0 13 5 13 13l0 307c0 8 7 13 13 13l25 0c8 0 13-5 13-13l0-327c0-31-10-44-44-44l-424 0c-34 0-44 10-44 44l0 424c0 34 10 44 44 44z m3-87c5 5 13 5 18 0l36-36c2-5 2-13-3-15l-243-243c-3-3-5-3-8-3l-33 0c-8 0-13 5-13 13l0 33c0 3 3 8 3 10z m61 61c8 8 18 8 26 0l25-25c8-8 8-18 0-26l-25-25-51 51c12 10 20 20 25 25z"/>
<glyph glyph-name="mail-icon" unicode="&#106;" d="M461 461l-417 0c-29 0-44-16-44-44l0-322c0-28 15-44 44-44l427 0c28 0 44 16 44 44l0 315c-3 28-26 51-54 51z m-23-136l-162-92c-10-5-30-5-40 0l-162 92c-10 5-20 10-20 21l0 12c0 8 5 13 13 13 2 0 5 0 7-2l164-100c10-5 31-5 41 0l164 100c5 2 13 2 18-5 0-3 2-6 2-8l0-16c-5-5-15-10-25-15z"/>
<glyph glyph-name="minus-icon" unicode="&#107;" d="M141 282l230 0c8 0 13-6 13-13l0-26c0-7-5-13-13-13l-230 0c-8 0-13 6-13 13l0 26c0 7 5 13 13 13z m-90-26c0 113 92 205 205 205 113 0 205-92 205-205 0-113-92-205-205-205-113 0-205 92-205 205z m-51 0c0-141 115-256 256-256 141 0 256 115 256 256 0 141-115 256-256 256-141 0-256-115-256-256z"/>
<glyph glyph-name="print-icon" unicode="&#108;" d="M435 358l-358 0c-44 0-77-33-77-76l0-141c0-8 5-13 13-13l77 0c7 0 12-5 12-13l0-77c0-7 6-12 13-12l282 0c7 0 13 5 13 12l0 77c0 8 5 13 12 13l77 0c8 0 13 5 13 13l0 141c0 43-33 76-77 76z m-82-281l-194 0c-3 0-5 2-5 7l0 116c0 2 2 5 5 5l192 0c2 0 5-3 5-5l0-116c2-5 0-7-3-7z m82 179c-13 0-25 10-25 26 0 15 12 25 25 25 13 0 26-10 26-25 0-16-13-26-26-26z m-31 230l-296 0c-3 0-6-2-6-5l0-89c0-5 3-8 6-8l294 0c5 0 8 3 8 8l0 89c0 3-3 5-6 5z"/>
<glyph glyph-name="search-icon" unicode="&#109;" d="M390 315c0-44-15-88-41-120l9-10 3 3c5 5 12 5 17 0l124-125c5-4 5-12 0-17l-24-24c-5-5-12-5-17 0l-125 124c-4 5-4 12 0 17l3 3-10 10c-32-27-78-42-124-42-100 0-181 81-181 181 0 99 81 185 181 185 100 0 185-86 185-185z m-183 136c-73 0-134-61-134-134 0-73 61-134 134-134 73 0 134 61 134 134 0 73-61 134-134 134z"/>
<glyph glyph-name="down-dir" unicode="&#110;" d="M374 358c0 0-118-204-118-204 0 0-118 204-118 204 0 0 236 0 236 0"/>
<glyph glyph-name="left-dir" unicode="&#111;" d="M358 374c0 0 0-236 0-236 0 0-204 118-204 118 0 0 204 118 204 118"/>
<glyph glyph-name="right-dir" unicode="&#112;" d="M154 374c0 0 204-118 204-118 0 0-204-118-204-118 0 0 0 236 0 236"/>
<glyph glyph-name="up-dir" unicode="&#113;" d="M138 154c0 0 118 204 118 204 0 0 118-204 118-204 0 0-236 0-236 0"/>
<glyph glyph-name="exclamation-triangle" unicode="&#114;" d="M293 119l0 54c0 3-1 5-3 7-2 2-4 3-7 3l-54 0c-3 0-5-1-7-3-2-2-3-4-3-7l0-54c0-3 1-5 3-7 2-1 4-2 7-2l54 0c3 0 5 1 7 2 2 2 3 4 3 7z m-1 107l5 131c0 2-1 4-3 6-2 2-4 3-7 3l-62 0c-3 0-5-1-7-3-2-2-3-4-3-6l5-131c0-2 1-3 3-5 1-1 4-2 6-2l53 0c3 0 5 1 7 2 2 2 3 3 3 5z m-4 267l219-402c7-12 7-24 0-36-3-6-8-10-13-14-6-3-12-4-19-4l-438 0c-7 0-13 1-19 4-5 4-10 8-13 14-7 12-7 24 0 36l219 402c3 6 8 10 13 14 6 3 12 5 19 5 7 0 13-2 19-5 5-4 10-8 13-14z"/>
<glyph glyph-name="check" unicode="&#115;" d="M384 416l-192-192-64 64-64-64 128-128 256 256z"/>
<glyph glyph-name="check-1" unicode="&#116;" d="M477 350c0-7-2-14-8-19l-206-207-39-39c-6-5-12-8-20-8-7 0-14 3-19 8l-142 142c-6 6-8 12-8 20 0 7 2 14 8 19l38 39c6 5 12 8 20 8 7 0 14-3 19-8l84-84 188 188c5 5 12 8 19 8 8 0 14-3 20-8l38-39c6-6 8-12 8-20z"/>
<glyph glyph-name="check-2" unicode="&#117;" d="M212 77c-11 0-21 5-28 14 0 0-92 121-92 121-6 8-8 17-6 27 1 9 5 17 13 23 7 6 16 9 26 7 10-1 18-6 24-14 0 0 60-79 60-79 0 0 152 243 152 243 5 8 13 13 22 15 9 2 18 1 27-4 8-5 13-13 15-22 3-9 1-18-4-27 0 0-179-287-179-287-7-11-16-16-28-16 0 0-2-1-2-1"/>
</font>
</defs>
</svg>
